<?xml version="1.0" encoding="UTF-8" standalone="no"?>
<!DOCTYPE svg PUBLIC "-//W3C//DTD SVG 1.1//EN"
 "http://www.w3.org/Graphics/SVG/1.1/DTD/svg11.dtd">
<!-- Generated by graphviz version 2.43.0 (0)
 -->
<!-- Title: G Pages: 1 -->
<svg width="510pt" height="358pt"
 viewBox="0.00 0.00 510.00 358.00" xmlns="http://www.w3.org/2000/svg" xmlns:xlink="http://www.w3.org/1999/xlink">
<g id="graph0" class="graph" transform="scale(1 1) rotate(0) translate(18 340)">
<title>G</title>
<polygon fill="white" stroke="transparent" points="-18,18 -18,-340 492,-340 492,18 -18,18"/>
<text text-anchor="middle" x="237" y="-20.4" font-family="Helvetica,sans-Serif" font-size="12.00">EARLY: commits to a drink AS it takes the coin. Both paid states show `paid`.</text>
<text text-anchor="middle" x="237" y="-7.4" font-family="Helvetica,sans-Serif" font-size="12.00">Same traces as LATE &#45;&#45; no LTL formula tells them apart &#45;&#45; but not bisimilar.</text>
<!-- start -->
<g id="node1" class="node">
<title>start</title>
<ellipse fill="#2f55d4" stroke="#2f55d4" stroke-width="1.6" cx="15" cy="-178" rx="4.32" ry="4.32"/>
</g>
<!-- idle -->
<g id="node2" class="node">
<title>idle</title>
<path fill="white" stroke="#1f2430" stroke-width="1.6" d="M120.32,-196C120.32,-196 90.32,-196 90.32,-196 84.32,-196 78.32,-190 78.32,-184 78.32,-184 78.32,-172 78.32,-172 78.32,-166 84.32,-160 90.32,-160 90.32,-160 120.32,-160 120.32,-160 126.32,-160 132.32,-166 132.32,-172 132.32,-172 132.32,-184 132.32,-184 132.32,-190 126.32,-196 120.32,-196"/>
<text text-anchor="middle" x="105.32" y="-174.3" font-family="Helvetica,sans-Serif" font-size="14.00">idle</text>
</g>
<!-- start&#45;&gt;idle -->
<g id="edge1" class="edge">
<title>start&#45;&gt;idle</title>
<path fill="none" stroke="#1f2430" stroke-width="1.3" d="M19.35,-178C27.68,-178 50.04,-178 69.74,-178"/>
<polygon fill="#1f2430" stroke="#1f2430" stroke-width="1.3" points="69.97,-180.8 77.97,-178 69.97,-175.2 69.97,-180.8"/>
</g>
<!-- paid_c -->
<g id="node3" class="node">
<title>paid_c</title>
<path fill="#e3e9fb" stroke="#2f55d4" stroke-width="1.6" d="M323.32,-322C323.32,-322 227.32,-322 227.32,-322 221.32,-322 215.32,-316 215.32,-310 215.32,-310 215.32,-292 215.32,-292 215.32,-286 221.32,-280 227.32,-280 227.32,-280 323.32,-280 323.32,-280 329.32,-280 335.32,-286 335.32,-292 335.32,-292 335.32,-310 335.32,-310 335.32,-316 329.32,-322 323.32,-322"/>
<text text-anchor="middle" x="275.32" y="-304.8" font-family="Helvetica,sans-Serif" font-size="14.00">paid_c</text>
<text text-anchor="middle" x="275.32" y="-289.8" font-family="Helvetica,sans-Serif" font-size="14.00">(shows: paid)</text>
</g>
<!-- idle&#45;&gt;paid_c -->
<g id="edge2" class="edge">
<title>idle&#45;&gt;paid_c</title>
<path fill="none" stroke="#1f2430" stroke-width="1.3" d="M116.8,-196.02C126.65,-211.7 142.64,-234.16 161.32,-249 175.18,-260.01 191.74,-269.3 207.86,-276.84"/>
<polygon fill="#1f2430" stroke="#1f2430" stroke-width="1.3" points="206.78,-279.43 215.22,-280.19 209.09,-274.33 206.78,-279.43"/>
<text text-anchor="middle" x="173.82" y="-267.4" font-family="Helvetica,sans-Serif" font-size="12.00">coin</text>
</g>
<!-- paid_t -->
<g id="node4" class="node">
<title>paid_t</title>
<path fill="#e3e9fb" stroke="#2f55d4" stroke-width="1.6" d="M323.32,-76C323.32,-76 227.32,-76 227.32,-76 221.32,-76 215.32,-70 215.32,-64 215.32,-64 215.32,-46 215.32,-46 215.32,-40 221.32,-34 227.32,-34 227.32,-34 323.32,-34 323.32,-34 329.32,-34 335.32,-40 335.32,-46 335.32,-46 335.32,-64 335.32,-64 335.32,-70 329.32,-76 323.32,-76"/>
<text text-anchor="middle" x="275.32" y="-58.8" font-family="Helvetica,sans-Serif" font-size="14.00">paid_t</text>
<text text-anchor="middle" x="275.32" y="-43.8" font-family="Helvetica,sans-Serif" font-size="14.00">(shows: paid)</text>
</g>
<!-- idle&#45;&gt;paid_t -->
<g id="edge3" class="edge">
<title>idle&#45;&gt;paid_t</title>
<path fill="none" stroke="#1f2430" stroke-width="1.3" d="M113.7,-159.81C122.39,-140.59 138.56,-110.68 161.32,-93 174.73,-82.58 191.16,-74.93 207.29,-69.36"/>
<polygon fill="#1f2430" stroke="#1f2430" stroke-width="1.3" points="208.44,-71.93 215.17,-66.78 206.7,-66.61 208.44,-71.93"/>
<text text-anchor="middle" x="173.82" y="-96.4" font-family="Helvetica,sans-Serif" font-size="12.00">coin</text>
</g>
<!-- coffee -->
<g id="node5" class="node">
<title>coffee</title>
<path fill="white" stroke="#1f2430" stroke-width="1.6" d="M451.32,-260C451.32,-260 406.32,-260 406.32,-260 400.32,-260 394.32,-254 394.32,-248 394.32,-248 394.32,-236 394.32,-236 394.32,-230 400.32,-224 406.32,-224 406.32,-224 451.32,-224 451.32,-224 457.32,-224 463.32,-230 463.32,-236 463.32,-236 463.32,-248 463.32,-248 463.32,-254 457.32,-260 451.32,-260"/>
<text text-anchor="middle" x="428.82" y="-238.3" font-family="Helvetica,sans-Serif" font-size="14.00">coffee</text>
</g>
<!-- paid_c&#45;&gt;coffee -->
<g id="edge4" class="edge">
<title>paid_c&#45;&gt;coffee</title>
<path fill="none" stroke="#1f2430" stroke-width="1.3" d="M330.59,-279.87C348.99,-272.7 369.25,-264.81 386.48,-258.1"/>
<polygon fill="#1f2430" stroke="#1f2430" stroke-width="1.3" points="387.73,-260.62 394.17,-255.1 385.7,-255.4 387.73,-260.62"/>
</g>
<!-- tea -->
<g id="node6" class="node">
<title>tea</title>
<path fill="white" stroke="#1f2430" stroke-width="1.6" d="M443.82,-132C443.82,-132 413.82,-132 413.82,-132 407.82,-132 401.82,-126 401.82,-120 401.82,-120 401.82,-108 401.82,-108 401.82,-102 407.82,-96 413.82,-96 413.82,-96 443.82,-96 443.82,-96 449.82,-96 455.82,-102 455.82,-108 455.82,-108 455.82,-120 455.82,-120 455.82,-126 449.82,-132 443.82,-132"/>
<text text-anchor="middle" x="428.82" y="-110.3" font-family="Helvetica,sans-Serif" font-size="14.00">tea</text>
</g>
<!-- paid_t&#45;&gt;tea -->
<g id="edge5" class="edge">
<title>paid_t&#45;&gt;tea</title>
<path fill="none" stroke="#1f2430" stroke-width="1.3" d="M330.59,-76.13C351.69,-84.35 375.21,-93.51 393.83,-100.76"/>
<polygon fill="#1f2430" stroke="#1f2430" stroke-width="1.3" points="393.02,-103.45 401.49,-103.75 395.05,-98.23 393.02,-103.45"/>
</g>
<!-- coffee&#45;&gt;idle -->
<g id="edge6" class="edge">
<title>coffee&#45;&gt;idle</title>
<path fill="none" stroke="#1f2430" stroke-width="1.3" d="M394.18,-235.3C332.54,-223.03 202.13,-197.07 140.26,-184.76"/>
<polygon fill="#1f2430" stroke="#1f2430" stroke-width="1.3" points="140.75,-182 132.36,-183.18 139.66,-187.49 140.75,-182"/>
</g>
<!-- tea&#45;&gt;idle -->
<g id="edge7" class="edge">
<title>tea&#45;&gt;idle</title>
<path fill="none" stroke="#1f2430" stroke-width="1.3" d="M401.54,-119.23C343.66,-130.75 205.2,-158.32 140.6,-171.18"/>
<polygon fill="#1f2430" stroke="#1f2430" stroke-width="1.3" points="139.66,-168.51 132.36,-172.82 140.75,-174 139.66,-168.51"/>
</g>
</g>
</svg>
